Coordinates
version=1
nRows=32
nColumns=22
inDegrees=yes

Units are S.I. units (second, meters, Newtons, ...)
If the header above contains a line with 'inDegrees', this indicates whether rotational values are in degrees (yes) or radians (no).

endheader
time	pelvis_tilt	pelvis_list	pelvis_rotation	pelvis_tx	pelvis_ty	pelvis_tz	hip_flexion_r	hip_adduction_r	hip_rotation_r	knee_angle_r	ankle_angle_r	subtalar_angle_r	hip_flexion_l	hip_adduction_l	hip_rotation_l	knee_angle_l	ankle_angle_l	subtalar_angle_l	lumbar_extension	lumbar_bending	lumbar_rotation
      4.22000000	      0.49193293	      6.11890912	     97.36089897	      0.42664471	      0.89560047	     -0.27564704	     20.66874918	     -2.30116224	     -6.42724368	    -20.83364123	     -6.41272751	      7.33834174	    -15.09116210	     -1.38313924	      4.08713588	    -33.31757976	      8.04886534	     -3.41581035	     -8.99013870	     -4.90203774	    -12.60242386
      4.23000000	      0.77558631	      6.19629622	     97.68182331	      0.42885243	      0.89722846	     -0.28535254	     20.28500935	     -1.98611079	     -7.04737812	    -21.48723011	     -6.27500366	      7.45893687	    -14.64636155	     -2.02073099	      4.04763119	    -34.88442345	      5.95819874	     -2.90587113	     -8.87255636	     -4.45071831	    -12.52611894
      4.24000000	      1.08679566	      6.23672406	     97.98732516	      0.43101205	      0.89892820	     -0.29484209	     19.86251315	     -1.62301006	     -7.62738526	    -21.96196768	     -6.04191786	      7.58449458	    -14.00270417	     -2.65927513	      4.02822957	    -36.63115361	      3.79259810	     -2.27250007	     -8.72538582	     -3.97482214	    -12.39741468
      4.25000000	      1.40739839	      6.22927852	     98.28378128	      0.43310557	      0.90062341	     -0.30404813	     19.42627158	     -1.22845131	     -8.14746348	    -22.27105806	     -5.75084404	      7.66148556	    -13.14591704	     -3.27670961	      4.04467531	    -38.56435660	      1.64009039	     -1.57104896	     -8.55012776	     -3.49191378	    -12.22384704
      4.26000000	      1.73721788	      6.20223726	     98.58529968	      0.43513471	      0.90231310	     -0.31292890	     18.96228157	     -0.79746746	     -8.59860502	    -22.43505000	     -5.51018485	      7.66594984	    -12.11290286	     -3.87724526	      4.12249191	    -40.66556558	     -0.45707021	     -0.97723253	     -8.38423388	     -2.99879434	    -12.04176562
      4.27000000	      2.03861735	      6.10946262	     98.87155003	      0.43714278	      0.90384880	     -0.32148999	     18.54382774	     -0.37634648	     -8.98744568	    -22.50628443	     -5.17676522	      7.59730524	    -10.87426616	     -4.42162411	      4.21248686	    -42.92282175	     -2.35854091	     -0.25652536	     -8.17674965	     -2.55593943	    -11.80085688
      4.28000000	      2.31695689	      5.99437752	     99.15000382	      0.43911982	      0.90528136	     -0.32971021	     18.14252307	      0.04371242	     -9.30585722	    -22.51578852	     -4.84035297	      7.44882315	     -9.50518395	     -4.90408236	      4.37931003	    -45.28276073	     -4.04813262	      0.39798040	     -7.98271439	     -2.14816222	    -11.50890768
      4.29000000	      2.55851858	      5.89137685	     99.42648779	      0.44103897	      0.90664464	     -0.33760273	     17.71325348	      0.44527600	     -9.58553943	    -22.45223317	     -4.52230989	      7.24769866	     -8.06115916	     -5.32971312	      4.57157811	    -47.71045482	     -5.48478369	      0.91190086	     -7.84268017	     -1.78127454	    -11.17385595
      4.30000000	      2.77045191	      5.80144252	     99.70182366	      0.44291678	      0.90794614	     -0.34520064	     17.26008216	      0.83108981	     -9.85894712	    -22.33100142	     -4.22270514	      7.00505963	     -6.57155082	     -5.70393863	      4.79908801	    -50.14527654	     -6.64603698	      1.30420746	     -7.75019645	     -1.45518430	    -10.76820315
      4.31000000	      2.91966716	      5.70591898	     99.96994488	      0.44478662	      0.90914960	     -0.35247381	     16.80811590	      1.17257536	    -10.04521438	    -22.17473212	     -3.84639359	      6.68111167	     -5.03392066	     -6.00031354	      5.01512563	    -52.54973468	     -7.47173398	      1.61453550	     -7.69523848	     -1.21014792	    -10.37152352
      4.32000000	      3.04362435	      5.68500739	    100.23328086	      0.44659179	      0.91042663	     -0.35950955	     16.26215618	      1.49942929	    -10.28754691	    -21.96257122	     -3.54147747	      6.39747530	     -3.57075489	     -6.27143032	      5.21941938	    -54.83273639	     -8.03627245	      1.79910426	     -7.74981201	     -0.98621107	     -9.89518438
      4.33000000	      3.12110291	      5.66932336	    100.49032873	      0.44835654	      0.91167729	     -0.36626019	     15.69967538	      1.78912739	    -10.47857205	    -21.70548268	     -3.20857834	      6.07706697	     -2.11388236	     -6.48326696	      5.40352526	    -56.97640016	     -8.27311016	      1.91101187	     -7.84197760	     -0.81824045	     -9.40304474
      4.34000000	      3.15140844	      5.68533468	    100.72729762	      0.45009331	      0.91297949	     -0.37276201	     15.09442868	      2.04221918	    -10.64414229	    -21.41264900	     -2.89087089	      5.77699580	     -0.71930735	     -6.64210322	      5.54442200	    -58.92504571	     -8.22708006	      1.94912982	     -7.99697271	     -0.70546017	     -8.87648928
      4.35000000	      3.13426451	      5.68934955	    100.94406240	      0.45178576	      0.91430656	     -0.37905068	     14.48231906	      2.24801242	    -10.78538030	    -21.06635175	     -2.61660879	      5.46898919	      0.64527809	     -6.73978384	      5.63787989	    -60.65208478	     -7.92158399	      1.90782280	     -8.15296063	     -0.65530636	     -8.30490521
      4.36000000	      3.07502522	      5.69804328	    101.12379717	      0.45346684	      0.91565143	     -0.38508876	     13.88185951	      2.41254330	    -10.88586704	    -20.73248691	     -2.36619766	      5.19861432	      1.96382990	     -6.79779281	      5.64757386	    -62.16266785	     -7.42667256	      1.80137854	     -8.33781840	     -0.65621113	     -7.71164544
      4.37000000	      2.97802279	      5.69694537	    101.26034470	      0.45511940	      0.91700564	     -0.39093070	     13.30222231	      2.53505446	    -10.94941006	    -20.40459650	     -2.13600648	      5.00162424	      3.23235060	     -6.81935506	      5.56924688	    -63.43806693	     -6.75865904	      1.67023672	     -8.52135399	     -0.70313571	     -7.07823886
      4.38000000	      2.84558643	      5.66261194	    101.34413631	      0.45676781	      0.91833185	     -0.39658220	     12.77556018	      2.61394809	    -10.96871201	    -20.09282094	     -1.93208606	      4.85376024	      4.46900999	     -6.80278508	      5.40268699	    -64.47984000	     -5.97159982	      1.52337666	     -8.67447376	     -0.80364854	     -6.41469885
      4.39000000	      2.68129882	      5.59358098	    101.37825471	      0.45838725	      0.91961255	     -0.40205709	     12.30537501	      2.64938202	    -10.94018697	    -19.80419974	     -1.74554223	      4.74853149	      5.66964534	     -6.75109345	      5.15657029	    -65.28935178	     -5.10016007	      1.37538032	     -8.79065880	     -0.94738078	     -5.73380936
      4.40000000	      2.49593321	      5.49620818	    101.36550804	      0.45997680	      0.92083788	     -0.40737048	     11.88437590	      2.65214784	    -10.87903389	    -19.53496777	     -1.57557796	      4.67536529	      6.82509445	     -6.67998513	      4.84136473	    -65.87257170	     -4.16744051	      1.23666647	     -8.87104856	     -1.12180196	     -5.04487624
      4.41000000	      2.30452591	      5.37998164	    101.31084119	      0.46153752	      0.92199536	     -0.41251221	     11.50662640	      2.63878312	    -10.79528092	    -19.28643141	     -1.41749766	      4.62001264	      7.92870164	     -6.61260640	      4.46545788	    -66.23892993	     -3.17945287	      1.10586286	     -8.92658443	     -1.30720365	     -4.34714730
      4.42000000	      2.08874972	      5.29331121	    101.25723786	      0.46297659	      0.92316933	     -0.41752542	     11.08748081	      2.58747751	    -10.76879658	    -19.01292049	     -1.29190150	      4.59358842	      8.91596889	     -6.53196146	      4.07452703	    -66.37819639	     -2.11906543	      1.05321382	     -9.00525576	     -1.50199148	     -3.73549336
      4.43000000	      1.93658887	      5.10103271	    101.08657759	      0.46459332	      0.92406907	     -0.42236703	     10.83603838	      2.60300567	    -10.59574757	    -18.77874565	     -1.14880143	      4.50776622	      9.97249795	     -6.56400949	      3.52049386	    -66.36050874	     -1.13032668	      0.78647624	     -8.94355342	     -1.67415380	     -3.00339322
      4.44000000	      1.77365185	      4.98340697	    100.94848895	      0.46605250	      0.92501203	     -0.42708275	     10.49433403	      2.59857373	    -10.52005839	    -18.51987443	     -1.01709053	      4.44707989	     10.86834854	     -6.60571518	      2.99363267	    -66.13386757	     -0.06878728	      0.60193065	     -8.95872803	     -1.83054927	     -2.38784532
      4.45000000	      1.62968438	      4.89536199	    100.80226370	      0.46746201	      0.92590147	     -0.43167897	     10.12657090	      2.61468326	    -10.43938051	    -18.24831094	     -0.88972038	      4.38457999	     11.66367994	     -6.69986914	      2.44448155	    -65.72767293	      0.98957681	      0.42348642	     -8.99183686	     -1.96172062	     -1.81651775
      4.46000000	      1.50303718	      4.84191582	    100.66485209	      0.46878598	      0.92674539	     -0.43617559	      9.71996328	      2.64737363	    -10.36869661	    -17.95559591	     -0.76417346	      4.31677311	     12.35229646	     -6.83192560	      1.90787381	    -65.15062203	      2.02770760	      0.23158659	     -9.05075904	     -2.06764177	     -1.29640162
      4.47000000	      1.39435763	      4.82445372	    100.53671941	      0.47003577	      0.92754225	     -0.44060252	      9.27304238	      2.69880258	    -10.31149872	    -17.64720481	     -0.62527725	      4.25390533	     12.92975146	     -7.00698559	      1.37705023	    -64.40961197	      3.03848588	      0.06979146	     -9.13379406	     -2.14915822	     -0.84591795
      4.48000000	      1.29974308	      4.83342256	    100.42410845	      0.47118920	      0.92828084	     -0.44496796	      8.79978164	      2.75959788	    -10.27241926	    -17.33334681	     -0.47497122	      4.19505196	     13.40495034	     -7.21302157	      0.86061192	    -63.51508823	      4.01956177	     -0.05292866	     -9.23034065	     -2.20954648	     -0.46997951
      4.49000000	      1.21616506	      4.86755740	    100.31937072	      0.47226199	      0.92898649	     -0.44929229	      8.29244792	      2.83159591	    -10.23813435	    -16.99898323	     -0.31799723	      4.12785299	     13.76900279	     -7.42987441	      0.38379406	    -62.45980907	      4.95123754	     -0.15248086	     -9.33787966	     -2.25685563	     -0.12746909
      4.50000000	      1.13518949	      4.90824545	    100.22871320	      0.47324149	      0.92962511	     -0.45355903	      7.78146682	      2.89893656	    -10.21576237	    -16.66695545	     -0.15094437	      4.05800468	     14.04960351	     -7.65335351	     -0.07402655	    -61.26567258	      5.85793213	     -0.19862101	     -9.44020773	     -2.29922750	      0.14508935
      4.51000000	      1.06574522	      4.93179354	    100.14015197	      0.47415498	      0.93016435	     -0.45777134	      7.30475915	      2.96688250	    -10.20283645	    -16.35748354	      0.03532164	      3.99343540	     14.27450103	     -7.88732726	     -0.50883353	    -59.94378719	      6.75188327	     -0.19702362	     -9.50840755	     -2.33470057	      0.38081424
      4.52000000	      1.00369146	      4.93165661	    100.05391145	      0.47500179	      0.93060923	     -0.46191937	      6.87301101	      3.03004946	    -10.19291182	    -16.07660139	      0.22628810	      3.93120160	     14.45081942	     -8.13071525	     -0.93667396	    -58.50017436	      7.64714801	     -0.18344331	     -9.53579024	     -2.36689838	      0.55443112
      4.53000000	      0.94340755	      4.93975281	     99.95372929	      0.47580217	      0.93104422	     -0.46604253	      6.42759339	      3.09711871	    -10.14765775	    -15.78048273	      0.41626078	      3.84844829	     14.52840580	     -8.37343012	     -1.34432349	    -56.92609169	      8.51620681	     -0.19780189	     -9.55592373	     -2.40221138	      0.75613727
